<?xml version="1.0" standalone="no"?>
<!DOCTYPE svg PUBLIC "-//W3C//DTD SVG 20010904//EN"
 "http://www.w3.org/TR/2001/REC-SVG-20010904/DTD/svg10.dtd">
<svg version="1.0" xmlns="http://www.w3.org/2000/svg"
 width="2700.000000pt" height="532.000000pt" viewBox="0 0 2700.000000 532.000000"
 preserveAspectRatio="xMidYMid meet">
<metadata>
Created by potrace 1.15, written by Peter Selinger 2001-2017
</metadata>
<g transform="translate(0.000000,532.000000) scale(0.100000,-0.100000)"
fill="#000000" stroke="none">
<path d="M140 2915 l0 -2255 75 0 75 0 0 -270 0 -270 1530 0 1530 0 2 448 3
447 238 3 237 2 0 540 0 540 -165 0 -165 0 0 185 0 185 -75 0 -75 0 2 173 3
172 238 3 237 2 0 540 0 540 -165 0 -165 0 0 185 0 185 -75 0 -75 0 0 265 0
265 -165 0 -165 0 0 185 0 185 -1440 0 -1440 0 0 -2255z m3150 1590 l0 -235
-30 0 -30 0 0 200 0 200 -105 0 -105 0 0 35 0 35 135 0 135 0 0 -235z m-122
-62 l2 -173 -75 0 -75 0 0 175 0 176 73 -3 72 -3 3 -172z m-628 -363 l0 -180
-645 0 -645 0 0 -265 0 -265 -75 0 -75 0 0 445 0 445 720 0 720 0 0 -180z m0
-275 l0 -35 -585 0 -585 0 0 -200 0 -200 -30 0 -30 0 0 235 0 235 615 0 615 0
0 -35z m1230 -450 l0 -485 -240 0 -240 0 0 -200 0 -200 -30 0 -30 0 0 235 0
235 240 0 240 0 0 415 0 415 -105 0 -105 0 0 35 0 35 135 0 135 0 0 -485z
m-1230 190 l0 -175 -555 0 -555 0 0 168 c0 93 3 172 7 175 3 4 253 7 555 7
l548 0 0 -175z m1108 -187 l2 -358 -240 0 -240 0 0 -265 0 -265 -75 0 -75 0 0
445 0 445 240 0 240 0 0 180 0 181 73 -3 72 -3 3 -357z m-1108 -1078 l0 -180
-645 0 -645 0 0 -265 0 -265 -75 0 -75 0 0 445 0 445 720 0 720 0 0 -180z m0
-275 l0 -35 -585 0 -585 0 0 -200 0 -200 -30 0 -30 0 0 235 0 235 615 0 615 0
0 -35z m1230 -450 l0 -485 -240 0 -240 0 0 -450 0 -450 -1470 0 -1470 0 0 245
0 245 30 0 30 0 0 -210 0 -210 1410 0 1410 0 0 450 0 450 240 0 240 0 0 415 0
415 -105 0 -105 0 0 35 0 35 135 0 135 0 0 -485z m-1230 190 l0 -175 -555 0
-555 0 0 168 c0 93 3 172 7 175 3 4 253 7 555 7 l548 0 0 -175z m1108 -187 l2
-358 -240 0 -240 0 0 -450 0 -450 -1350 0 -1350 0 0 180 0 180 1275 0 1275 0
0 450 0 450 240 0 240 0 0 180 0 181 73 -3 72 -3 3 -357z"/>
<path d="M3980 2915 l0 -2255 75 0 75 0 0 -270 0 -270 570 0 570 0 0 2340 0
2340 -165 0 -165 0 0 185 0 185 -480 0 -480 0 0 -2255z m1230 -460 l0 -2285
-510 0 -510 0 0 245 0 245 30 0 30 0 0 -210 0 -210 450 0 450 0 0 2215 0 2215
-105 0 -105 0 0 35 0 35 135 0 135 0 0 -2285z m-122 3 l2 -2158 -390 0 -390 0
0 180 0 180 315 0 315 0 0 1980 0 1981 73 -3 72 -3 3 -2157z"/>
<path d="M5420 2915 l0 -2255 75 0 75 0 0 -270 0 -270 570 0 570 0 2 1347 3
1348 73 3 72 3 0 -181 0 -180 75 0 75 0 0 -270 0 -270 165 0 165 0 0 -180 0
-180 75 0 75 0 0 -270 0 -270 165 0 165 0 0 -180 0 -180 75 0 75 0 0 -270 0
-270 1050 0 1050 0 0 2340 0 2340 -165 0 -165 0 0 185 0 185 -480 0 -480 0 0
-1800 0 -1800 -75 0 -75 0 0 265 0 265 -165 0 -165 0 0 185 0 185 -75 0 -75 0
0 265 0 265 -165 0 -165 0 0 185 0 185 -75 0 -75 0 0 265 0 265 -165 0 -165 0
0 185 0 185 -75 0 -75 0 0 265 0 265 -165 0 -165 0 0 185 0 185 -720 0 -720 0
0 -2255z m1710 1590 l0 -235 -30 0 -30 0 0 200 0 200 -105 0 -105 0 0 35 0 35
135 0 135 0 0 -235z m2880 -2050 l0 -2285 -990 0 -990 0 0 245 0 245 30 0 30
0 0 -210 0 -210 930 0 930 0 0 2215 0 2215 -105 0 -105 0 0 35 0 35 135 0 135
0 0 -2285z m-3002 1988 l2 -173 -75 0 -75 0 0 175 0 176 73 -3 72 -3 3 -172z
m2880 -1985 l2 -2158 -870 0 -870 0 0 180 0 180 795 0 795 0 0 1980 0 1981 73
-3 72 -3 3 -2157z m-2278 1147 l0 -235 -30 0 -30 0 0 200 0 200 -105 0 -105 0
0 35 0 35 135 0 135 0 0 -235z m-122 -62 l2 -173 -75 0 -75 0 0 175 0 176 73
-3 72 -3 3 -172z m-628 -363 l0 -180 -165 0 -165 0 0 -1350 0 -1350 -390 0
-390 0 0 180 0 180 315 0 315 0 0 1350 0 1350 240 0 240 0 0 -180z m0 -275 l0
-35 -105 0 -105 0 0 -1350 0 -1350 -510 0 -510 0 0 245 0 245 30 0 30 0 0
-210 0 -210 450 0 450 0 0 1350 0 1350 135 0 135 0 0 -35z m1230 -200 l0 -235
-30 0 -30 0 0 200 0 200 -105 0 -105 0 0 35 0 35 135 0 135 0 0 -235z m-122
-62 l2 -173 -75 0 -75 0 0 175 0 176 73 -3 72 -3 3 -172z m-838 -393 l0 -210
105 0 105 0 0 -35 0 -35 -135 0 -135 0 0 245 0 245 30 0 30 0 0 -210z m210 30
l0 -180 -75 0 -75 0 0 180 0 180 75 0 75 0 0 -180z m1230 -475 l0 -235 -30 0
-30 0 0 200 0 200 -105 0 -105 0 0 35 0 35 135 0 135 0 0 -235z m-122 -62 l2
-173 -75 0 -75 0 0 175 0 176 73 -3 72 -3 3 -172z m-838 -393 l0 -210 105 0
105 0 0 -35 0 -35 -135 0 -135 0 0 245 0 245 30 0 30 0 0 -210z m210 30 l0
-180 -75 0 -75 0 0 180 0 180 75 0 75 0 0 -180z"/>
<path d="M10700 4720 l0 -450 -240 0 -240 0 0 -1805 0 -1805 75 0 75 0 0 -270
0 -270 570 0 570 0 2 898 3 897 553 3 552 2 0 -630 0 -630 75 0 75 0 0 -270 0
-270 570 0 570 0 0 1890 0 1890 -165 0 -165 0 0 185 0 185 -75 0 -75 0 0 265
0 265 -165 0 -165 0 0 185 0 185 -1200 0 -1200 0 0 -450z m2670 -215 l0 -235
-30 0 -30 0 0 200 0 200 -105 0 -105 0 0 35 0 35 135 0 135 0 0 -235z m-122
-62 l2 -173 -75 0 -75 0 0 175 0 176 73 -3 72 -3 3 -172z m-628 -363 l0 -180
-645 0 -645 0 0 -265 0 -265 -75 0 -75 0 0 445 0 445 720 0 720 0 0 -180z m0
-275 l0 -35 -585 0 -585 0 0 -200 0 -200 -30 0 -30 0 0 235 0 235 615 0 615 0
0 -35z m1230 -1800 l0 -1835 -510 0 -510 0 0 245 0 245 30 0 30 0 0 -210 0
-210 450 0 450 0 0 1765 0 1765 -105 0 -105 0 0 35 0 35 135 0 135 0 0 -1835z
m-1230 1540 l0 -175 -555 0 -555 0 0 168 c0 93 3 172 7 175 3 4 253 7 555 7
l548 0 0 -175z m1108 -1538 l2 -1707 -390 0 -390 0 0 180 0 180 315 0 315 0 0
1530 0 1531 73 -3 72 -3 3 -1708z m-1108 273 l0 -180 -645 0 -645 0 0 -900 0
-900 -390 0 -390 0 0 180 0 180 315 0 315 0 0 900 0 900 720 0 720 0 0 -180z
m0 -275 l0 -35 -585 0 -585 0 0 -900 0 -900 -510 0 -510 0 0 245 0 245 30 0
30 0 0 -210 0 -210 450 0 450 0 0 900 0 900 615 0 615 0 0 -35z"/>
<path d="M14060 2915 l0 -2255 75 0 75 0 0 -270 0 -270 163 -2 c89 -2 345 -2
569 0 l408 2 2 898 3 897 550 0 550 0 3 -627 2 -628 75 0 75 0 0 -270 0 -270
163 -2 c89 -2 345 -2 570 0 l407 2 0 990 0 990 -165 0 -165 0 0 185 0 185 -75
0 -75 0 2 173 3 172 70 2 c39 1 145 2 238 2 l167 1 0 540 0 540 -165 0 -165 0
0 185 0 185 -75 0 -75 0 0 265 0 265 -165 0 -165 0 0 185 0 185 -1440 0 -1440
0 0 -2255z m3150 1590 l0 -235 -35 0 -35 0 0 200 0 200 -100 0 -100 0 0 35 0
35 135 0 135 0 0 -235z m-122 -62 l2 -173 -75 0 -75 0 0 175 0 176 73 -3 72
-3 3 -172z m-628 -363 l0 -180 -645 0 -645 0 0 -265 0 -265 -75 0 -75 0 0 445
0 445 720 0 720 0 0 -180z m-2 -272 l-3 -33 -582 -3 -583 -2 0 -200 0 -200
-35 0 -35 0 0 235 0 235 621 0 620 0 -3 -32z m1232 -453 l0 -485 -240 0 -240
0 0 -200 0 -200 -35 0 -35 0 0 235 0 235 240 0 239 0 3 218 c2 119 2 306 0
415 l-2 197 -100 0 -100 0 0 35 0 35 135 0 135 0 0 -485z m-1232 188 l2 -173
-555 0 -555 0 0 168 c0 93 3 172 6 175 4 4 253 6 553 4 l546 -2 3 -172z m1110
-185 l2 -358 -240 0 -240 0 0 -265 0 -265 -75 0 -75 0 0 445 0 445 240 0 240
0 0 180 0 181 73 -3 72 -3 3 -357z m-1108 -1078 l0 -180 -645 0 -645 0 0 -267
c0 -148 0 -553 0 -901 l0 -632 -390 0 -390 0 0 180 0 180 315 0 315 0 0 900 0
900 720 0 720 0 0 -180z m-2 -272 l-3 -33 -582 -3 -583 -2 0 -900 0 -900 -510
0 -510 0 0 245 0 245 30 0 30 0 0 -210 0 -210 445 0 445 0 0 213 c0 116 0 521
0 900 l0 687 621 0 620 0 -3 -32z m1232 -903 l0 -935 -512 2 -513 3 -3 243 -2
242 35 0 35 0 0 -210 0 -210 445 0 445 0 0 210 c0 116 0 415 0 665 0 250 0
545 0 655 l0 200 -100 0 -100 0 0 35 0 35 135 0 135 0 0 -935z m-123 3 l3
-808 -390 0 -390 0 0 180 0 180 315 0 315 0 0 630 0 631 73 -3 72 -3 2 -807z"/>
<path d="M17900 2915 l0 -2255 75 0 75 0 0 -270 0 -270 163 -2 c89 -2 345 -2
570 0 l407 2 0 2340 0 2340 -165 0 -165 0 0 185 0 185 -480 0 -480 0 0 -2255z
m1230 -460 l0 -2285 -512 2 -513 3 -3 243 -2 242 35 0 35 0 0 -210 0 -210 445
0 445 0 0 210 c0 116 0 1022 0 2015 0 993 0 1895 0 2005 l0 200 -100 0 -100 0
0 35 0 35 135 0 135 0 0 -2285z m-123 3 l3 -2158 -390 0 -390 0 0 180 0 180
315 0 315 0 0 1980 0 1981 73 -3 72 -3 2 -2157z"/>
<path d="M19340 2915 l0 -2255 75 0 75 0 0 -270 0 -270 163 -2 c89 -2 885 -2
1770 0 l1607 2 0 540 0 540 -165 0 -165 0 0 185 0 185 -1035 0 -1035 0 2 172
3 173 70 2 c39 1 361 2 718 2 l647 1 0 540 0 540 -165 0 -165 0 0 185 0 185
-555 0 -555 0 2 173 3 172 70 2 c39 1 577 2 1198 2 l1127 1 0 540 0 540 -165
0 -165 0 0 185 0 185 -1680 0 -1680 0 0 -2255z m3630 1340 l0 -485 -1200 0
-1200 0 0 -200 0 -200 -35 0 -35 0 0 235 0 235 1200 0 1199 0 3 218 c2 119 2
306 0 415 l-2 197 -100 0 -100 0 0 35 0 35 135 0 135 0 0 -485z m-122 3 l2
-358 -1200 0 -1200 0 0 -265 0 -265 -75 0 -75 0 0 445 0 445 1200 0 1200 0 0
180 0 181 73 -3 72 -3 3 -357z m-838 -1803 l0 -485 -720 0 -720 0 0 -200 0
-200 -35 0 -35 0 0 235 0 235 720 0 719 0 3 218 c2 119 2 306 0 415 l-2 197
-100 0 -100 0 0 35 0 35 135 0 135 0 0 -485z m-122 3 l2 -358 -720 0 -720 0 0
-265 0 -265 -75 0 -75 0 0 445 0 445 720 0 720 0 0 180 0 181 73 -3 72 -3 3
-357z m1082 -1803 l0 -485 -1712 2 -1713 3 -3 243 -2 242 35 0 35 0 0 -210 0
-210 1645 0 1644 0 3 217 c2 120 2 307 0 416 l-2 197 -100 0 -100 0 0 35 0 35
135 0 135 0 0 -485z m-122 3 l2 -358 -1590 0 -1590 0 0 180 0 180 1515 0 1515
0 0 180 0 181 73 -3 72 -3 3 -357z"/>
<path d="M23180 3815 l0 -1355 75 0 75 0 0 -270 0 -270 163 0 c89 0 594 -1
1122 -3 l960 -2 3 -173 2 -172 -1200 0 -1200 0 0 -455 0 -455 75 0 75 0 0
-270 0 -270 163 -2 c89 -2 885 -2 1770 0 l1607 2 0 1440 0 1440 -165 0 -165 0
0 185 0 185 -1035 0 -1035 0 2 173 3 172 70 2 c39 1 577 2 1198 2 l1127 1 0
540 0 540 -165 0 -165 0 0 185 0 185 -1680 0 -1680 0 0 -1355z m3630 440 l0
-485 -1200 0 -1200 0 0 -200 0 -200 -35 0 -35 0 0 235 0 235 1200 0 1199 0 3
218 c2 119 2 306 0 415 l-2 197 -100 0 -100 0 0 35 0 35 135 0 135 0 0 -485z
m-122 3 l2 -358 -1200 0 -1200 0 0 -265 0 -265 -75 0 -75 0 0 445 0 445 1200
0 1200 0 0 180 0 181 73 -3 72 -3 3 -357z m122 -2703 l0 -1385 -1712 2 -1713
3 -3 243 -2 242 35 0 35 0 0 -210 0 -210 1645 0 1645 0 0 210 c0 116 0 617 0
1115 0 498 0 995 0 1105 l0 200 -100 0 -100 0 0 35 0 35 135 0 135 0 0 -1385z
m-123 3 l3 -1258 -1590 0 -1590 0 0 180 0 180 1515 0 1515 0 0 1080 0 1081 73
-3 72 -3 2 -1257z m-3237 692 l0 -210 1066 0 1065 0 -3 -32 -3 -33 -1095 0
-1095 0 -3 243 -2 242 35 0 35 0 0 -210z m2130 30 l0 -180 -1035 0 -1035 0 0
180 0 180 1035 0 1035 0 0 -180z"/>
</g>
</svg>
